<?xml version="1.0" encoding="utf-8"?>
<!-- Generator: Adobe Illustrator 16.0.4, SVG Export Plug-In . SVG Version: 6.00 Build 0)  -->
<!DOCTYPE svg PUBLIC "-//W3C//DTD SVG 1.1//EN" "http://www.w3.org/Graphics/SVG/1.1/DTD/svg11.dtd">
<svg version="1.1" id="Layer_1" xmlns="http://www.w3.org/2000/svg" xmlns:xlink="http://www.w3.org/1999/xlink" x="0px" y="0px"
	 width="326px" height="144px" viewBox="0 0 326 144" enable-background="new 0 0 326 144" xml:space="preserve">
<g opacity="0.5">
	<path fill="#8758A4" d="M266.701,151.124c9.234,10.53,8.186,26.556-2.346,35.789c-10.531,9.235-26.556,8.187-35.791-2.347
		c2.912,8.58,1.026,18.062-4.947,24.875c-5.975,6.813-15.129,9.92-24.016,8.152c-8.888-1.768-16.156-8.143-19.068-16.723
		c-0.916,13.979-12.988,24.566-26.966,23.648c-13.977-0.916-24.564-12.988-23.648-26.965c-6.195,12.562-21.401,17.725-33.964,11.528
		s-17.724-21.401-11.528-33.965c-10.531,9.235-26.555,8.187-35.79-2.347c-9.235-10.531-8.186-26.555,2.346-35.789
		c-8.58,2.912-18.062,1.025-24.875-4.948c-6.812-5.974-9.92-15.129-8.152-24.017c1.768-8.887,8.143-16.153,16.723-19.065
		C20.7,88.038,10.112,75.964,11.029,61.987c0.916-13.977,12.989-24.564,26.966-23.648C25.433,32.144,20.271,16.937,26.466,4.374
		C32.661-8.187,47.867-13.349,60.43-7.153c-5.975-6.812-7.86-16.295-4.948-24.875c2.913-8.58,10.182-14.955,19.068-16.723
		c8.886-1.768,18.041,1.34,24.016,8.152c-2.912-8.58-1.026-18.062,4.948-24.875c5.974-6.812,15.129-9.92,24.016-8.152
		c8.887,1.768,16.155,8.143,19.067,16.723c0.916-13.977,12.989-24.564,26.965-23.648c13.978,0.916,24.564,12.99,23.648,26.967
		c4.008-8.127,12.047-13.498,21.088-14.09c9.041-0.594,17.713,3.682,22.746,11.217c5.033,7.533,5.666,17.18,1.658,25.307
		c6.812-5.975,16.295-7.859,24.875-4.947c8.58,2.912,14.955,10.182,16.723,19.068c1.768,8.886-1.34,18.041-8.152,24.016
		c13.265-4.502,27.666,2.6,32.168,15.863c4.502,13.263-2.6,27.666-15.862,32.168c9.041,0.592,17.08,5.963,21.088,14.09
		c4.006,8.126,3.375,17.773-1.66,25.309c-5.032,7.533-13.705,11.81-22.746,11.217c12.562,6.195,17.726,21.4,11.529,33.964
		C294.469,152.16,279.264,157.318,266.701,151.124L266.701,151.124z"/>
	<path fill="#9977B5" d="M261.635,144.555c8.84,9.729,8.115,24.782-1.613,33.62c-9.729,8.839-24.783,8.115-33.621-1.614
		c4.441,12.371-1.985,26.002-14.358,30.442c-12.371,4.44-26.002-1.985-30.442-14.356c-0.632,13.129-11.785,23.262-24.916,22.631
		c-13.13-0.631-23.263-11.785-22.632-24.916c-5.607,11.891-19.791,16.981-31.68,11.375c-11.889-5.607-16.981-19.791-11.374-31.68
		c-9.73,8.838-24.783,8.114-33.621-1.615c-8.838-9.73-8.115-24.783,1.615-33.621c-12.372,4.44-26.002-1.986-30.444-14.357
		c-4.441-12.373,1.987-26.002,14.358-30.443c-8.493-0.408-16.124-5.315-20.018-12.877c-3.894-7.559-3.458-16.621,1.143-23.772
		c4.6-7.152,12.666-11.307,21.159-10.898c-11.889-5.607-16.981-19.789-11.374-31.68c5.607-11.889,19.79-16.98,31.68-11.373
		c-8.839-9.73-8.115-24.783,1.614-33.621c9.73-8.838,24.783-8.115,33.621,1.615c-4.441-12.373,1.987-26.002,14.358-30.445
		c12.372-4.441,26.002,1.988,30.443,14.359c0.631-13.131,11.786-23.262,24.915-22.633c13.131,0.631,23.264,11.787,22.633,24.916
		c3.627-7.689,11.082-12.861,19.555-13.566c8.475-0.703,16.682,3.166,21.527,10.152c4.848,6.988,5.598,16.029,1.971,23.721
		c6.295-5.719,15.16-7.643,23.26-5.051c8.099,2.592,14.199,9.309,16.002,17.617c1.806,8.311-0.961,16.951-7.256,22.668
		c8.004-2.873,16.932-1.258,23.422,4.236c6.49,5.494,9.558,14.033,8.043,22.4c-1.514,8.367-7.375,15.293-15.379,18.166
		c13.131,0.631,23.262,11.785,22.633,24.916c-0.631,13.129-11.787,23.262-24.916,22.631c7.689,3.627,12.861,11.082,13.566,19.557
		c0.703,8.476-3.166,16.68-10.152,21.527C278.367,147.43,269.326,148.182,261.635,144.555L261.635,144.555z"/>
	<path fill="#8758A4" d="M256.375,138.186c8.416,8.946,7.984,23.021-0.961,31.438c-8.947,8.416-23.021,7.986-31.438-0.959
		c2.813,7.43,1.45,15.797-3.576,21.951c-5.027,6.152-12.955,9.156-20.797,7.879c-7.845-1.277-14.408-6.641-17.224-14.072
		c-0.375,12.277-10.633,21.926-22.909,21.551c-12.277-0.375-21.926-10.631-21.551-22.908c-5.045,11.199-18.213,16.188-29.412,11.144
		c-11.199-5.045-16.188-18.213-11.144-29.412c-8.946,8.416-23.021,7.986-31.438-0.961c-8.416-8.944-7.986-23.021,0.96-31.438
		c-7.43,2.814-15.798,1.453-21.951-3.574c-6.152-5.026-9.156-12.954-7.879-20.799c1.277-7.842,6.641-14.405,14.071-17.223
		c-7.942-0.242-15.151-4.703-18.912-11.703c-3.761-6.998-3.502-15.473,0.679-22.229c4.182-6.758,11.649-10.77,19.592-10.527
		C41.287,41.297,36.298,28.129,41.342,16.93C46.386,5.731,59.558,0.739,70.756,5.784c-8.416-8.945-7.985-23.021,0.961-31.438
		c8.946-8.417,23.021-7.986,31.438,0.961c-2.814-7.43-1.452-15.799,3.575-21.951s12.955-9.156,20.798-7.879
		c7.843,1.277,14.407,6.641,17.223,14.07c0.242-7.941,4.704-15.15,11.703-18.912c6.999-3.76,15.473-3.502,22.229,0.68
		c6.758,4.182,10.77,11.648,10.526,19.592c5.045-11.199,18.213-16.189,29.412-11.145c11.198,5.044,16.188,18.215,11.146,29.412
		c8.944-8.416,23.021-7.984,31.438,0.961c8.416,8.947,7.986,23.021-0.961,31.438c7.43-2.814,15.799-1.451,21.951,3.576
		s9.156,12.955,7.879,20.797c-1.277,7.844-6.641,14.408-14.07,17.223c12.277,0.375,21.926,10.633,21.551,22.91
		c-0.375,12.276-10.633,21.926-22.91,21.551c7.246,3.265,12.199,10.144,12.994,18.05c0.797,7.905-2.686,15.637-9.135,20.276
		C272.055,140.6,263.619,141.448,256.375,138.186L256.375,138.186z"/>
	<path fill="#9977B5" d="M250.922,132.023c7.971,8.181,7.799,21.273-0.383,29.242c-8.18,7.969-21.273,7.799-29.242-0.383
		c4.232,10.607-0.938,22.639-11.545,26.871s-22.639-0.938-26.871-11.545c-0.096,7.387-4.127,14.162-10.572,17.771
		c-6.445,3.61-14.328,3.508-20.678-0.271c-6.349-3.776-10.201-10.655-10.104-18.043c-4.508,10.492-16.67,15.347-27.163,10.836
		c-10.493-4.508-15.346-16.67-10.837-27.162c-5.292,5.154-12.933,7.097-20.043,5.091c-7.111-2.007-12.611-7.652-14.431-14.812
		c-1.818-7.16,0.321-14.748,5.613-19.904c-6.862,2.738-14.663,1.607-20.465-2.967c-5.803-4.574-8.724-11.896-7.663-19.207
		c1.06-7.312,5.94-13.502,12.803-16.24c-7.388-0.096-14.163-4.127-17.772-10.574c-3.61-6.444-3.507-14.328,0.271-20.678
		c3.777-6.348,10.655-10.201,18.043-10.104c-10.493-4.508-15.346-16.67-10.837-27.164c4.508-10.492,16.67-15.346,27.163-10.836
		c-5.155-5.293-7.096-12.934-5.09-20.043c2.005-7.111,7.651-12.611,14.812-14.432c7.16-1.818,14.748,0.322,19.903,5.613
		c-2.738-6.861-1.606-14.662,2.967-20.465c4.574-5.803,11.896-8.723,19.208-7.662c7.312,1.059,13.502,5.939,16.239,12.803
		c0.149-11.422,9.529-20.557,20.949-20.408c11.42,0.15,20.557,9.529,20.406,20.949c2.916-6.789,9.231-11.506,16.569-12.373
		c7.336-0.869,14.578,2.242,19,8.162c4.42,5.92,5.347,13.748,2.431,20.537c5.293-5.156,12.934-7.096,20.043-5.092
		c7.11,2.006,12.61,7.652,14.432,14.814c1.818,7.16-0.322,14.748-5.613,19.902c6.861-2.738,14.662-1.607,20.465,2.967
		c5.803,4.574,8.723,11.896,7.662,19.209c-1.059,7.311-5.939,13.502-12.803,16.238c7.389,0.098,14.162,4.129,17.773,10.574
		c3.608,6.445,3.506,14.329-0.271,20.678s-10.654,10.201-18.043,10.105c10.494,4.508,15.346,16.668,10.838,27.162
		C273.578,131.677,261.416,136.532,250.922,132.023L250.922,132.023z"/>
	<path fill="#8758A4" d="M245.285,126.075c7.5,7.434,7.553,19.538,0.119,27.036c-7.434,7.5-19.539,7.554-27.039,0.119
		c2.643,6.299,1.723,13.527-2.412,18.965c-4.135,5.438-10.855,8.257-17.631,7.396c-6.777-0.862-12.578-5.272-15.219-11.573
		c0.028,6.832-3.588,13.157-9.488,16.6c-5.9,3.441-13.188,3.473-19.117,0.084c-5.931-3.391-9.603-9.686-9.632-16.516
		c-2.586,6.321-8.349,10.782-15.117,11.705c-6.768,0.92-13.514-1.841-17.695-7.24c-4.181-5.4-5.164-12.621-2.578-18.943
		c-7.434,7.498-19.539,7.551-27.038,0.117s-7.552-19.539-0.118-27.037c-6.299,2.641-13.528,1.721-18.966-2.414
		c-5.437-4.133-8.255-10.855-7.394-17.631c0.862-6.775,5.273-12.576,11.573-15.219c-10.56,0.047-19.156-8.478-19.202-19.036
		c-0.046-10.558,8.476-19.156,19.035-19.201c-6.322-2.586-10.784-8.35-11.705-15.117S57.5,24.655,62.9,20.474
		c5.401-4.182,12.622-5.164,18.944-2.578c-7.499-7.434-7.552-19.539-0.118-27.039c7.434-7.498,19.539-7.551,27.038-0.117
		c-2.642-6.299-1.722-13.529,2.413-18.967c4.134-5.436,10.855-8.254,17.631-7.393c6.776,0.861,12.577,5.273,15.219,11.572
		c-0.046-10.559,8.477-19.156,19.036-19.201c10.558-0.047,19.156,8.475,19.201,19.035c2.586-6.322,8.351-10.785,15.117-11.705
		c6.768-0.922,13.514,1.838,17.695,7.238c4.182,5.402,5.164,12.623,2.578,18.945c4.809-4.852,11.84-6.768,18.445-5.029
		c6.604,1.739,11.78,6.869,13.578,13.459c1.797,6.592-0.06,13.639-4.867,18.49c9.737-4.084,20.94,0.5,25.024,10.238
		c4.082,9.736-0.5,20.941-10.237,25.023c10.559-0.045,19.155,8.477,19.2,19.035c0.048,10.561-8.475,19.156-19.034,19.204
		c6.321,2.586,10.784,8.35,11.704,15.116c0.923,6.769-1.838,13.515-7.237,17.695C258.828,127.68,251.607,128.661,245.285,126.075
		L245.285,126.075z"/>
	<path fill="#9977B5" d="M239.471,120.343c7.004,6.705,7.246,17.818,0.541,24.824c-6.705,7.004-17.82,7.248-24.824,0.541
		c2.525,5.742,1.797,12.396-1.912,17.455s-9.836,7.754-16.069,7.069c-6.235-0.682-11.636-4.641-14.16-10.383
		c0.138,6.271-3.082,12.142-8.444,15.396c-5.363,3.254-12.055,3.399-17.555,0.383s-8.972-8.737-9.108-15.01
		c-3.515,9.037-13.69,13.514-22.729,10c-9.039-3.515-13.515-13.688-10.001-22.729c-6.705,7.006-17.819,7.248-24.824,0.543
		c-7.005-6.707-7.248-17.82-0.542-24.826c-5.742,2.527-12.396,1.8-17.454-1.912c-5.059-3.709-7.754-9.834-7.071-16.069
		s4.641-11.633,10.383-14.16c-6.271,0.138-12.14-3.082-15.395-8.444c-3.254-5.361-3.399-12.056-0.383-17.554
		c3.018-5.5,8.739-8.973,15.011-9.109c-9.038-3.514-13.515-13.689-10-22.729c3.514-9.037,13.689-13.516,22.728-10
		c-7.005-6.705-7.247-17.82-0.542-24.824c6.706-7.006,17.82-7.248,24.825-0.543c-2.526-5.742-1.798-12.395,1.912-17.453
		c3.709-5.059,9.835-7.754,16.07-7.072c6.236,0.684,11.634,4.641,14.16,10.383c-0.212-9.695,7.476-17.725,17.171-17.938
		c9.694-0.211,17.727,7.477,17.938,17.172c2.272-5.848,7.494-10.037,13.693-10.99c6.198-0.955,12.438,1.471,16.362,6.363
		c3.929,4.893,4.944,11.508,2.672,17.354c6.705-7.004,17.82-7.246,24.824-0.541c7.006,6.705,7.248,17.82,0.543,24.824
		c8.875-3.904,19.235,0.125,23.144,9c3.903,8.877-0.125,19.238-9,23.143c9.694-0.211,17.725,7.477,17.938,17.172
		c0.211,9.693-7.477,17.724-17.172,17.936c9.039,3.516,13.516,13.69,10,22.729C258.684,119.38,248.508,123.855,239.471,120.343
		L239.471,120.343z"/>
	<path fill="#8758A4" d="M233.48,114.829c4.196,3.881,6.006,9.705,4.744,15.278c-1.261,5.574-5.4,10.052-10.857,11.746
		c-5.459,1.695-11.406,0.351-15.604-3.528c2.393,5.188,1.834,11.262-1.466,15.93c-3.299,4.668-8.836,7.222-14.526,6.697
		c-5.691-0.524-10.672-4.043-13.064-9.231c0.225,5.711-2.615,11.106-7.449,14.155c-4.832,3.052-10.925,3.289-15.983,0.629
		c-5.059-2.662-8.312-7.817-8.537-13.528c-1.978,5.36-6.666,9.262-12.299,10.229c-5.633,0.969-11.354-1.143-15.009-5.537
		c-3.654-4.393-4.688-10.404-2.709-15.766c-5.997,6.488-16.118,6.885-22.606,0.889c-6.488-5.998-6.886-16.119-0.889-22.607
		c-5.189,2.394-11.263,1.836-15.93-1.463c-4.668-3.299-7.221-8.836-6.697-14.527c0.522-5.69,4.042-10.672,9.232-13.063
		c-5.711,0.226-11.107-2.614-14.157-7.448c-3.05-4.834-3.289-10.929-0.628-15.984c2.661-5.059,7.818-8.312,13.529-8.537
		c-5.362-1.979-9.262-6.666-10.229-12.299c-0.967-5.633,1.143-11.355,5.537-15.01c4.394-3.654,10.404-4.688,15.766-2.709
		c-6.487-5.996-6.885-16.117-0.888-22.605c5.997-6.488,16.118-6.887,22.606-0.889c-2.393-5.189-1.835-11.264,1.464-15.93
		c3.298-4.668,8.836-7.221,14.527-6.697c5.691,0.521,10.672,4.041,13.064,9.232c-0.347-8.828,6.528-16.268,15.357-16.613
		c8.827-0.348,16.265,6.529,16.612,15.357c1.979-5.363,6.666-9.262,12.299-10.23c5.633-0.967,11.355,1.143,15.011,5.537
		s4.688,10.404,2.709,15.768c5.995-6.488,16.116-6.887,22.604-0.889c6.488,5.996,6.887,16.117,0.889,22.605
		c8.023-3.699,17.527-0.193,21.226,7.83c3.699,8.023,0.192,17.527-7.83,21.227c5.711-0.225,11.106,2.615,14.158,7.447
		c3.049,4.834,3.289,10.928,0.627,15.985c-2.66,5.06-7.817,8.312-13.528,8.535c5.362,1.979,9.262,6.668,10.229,12.302
		c0.967,5.633-1.144,11.354-5.537,15.008C244.854,115.775,238.844,116.809,233.48,114.829L233.48,114.829z"/>
	<path fill="#9977B5" d="M227.326,109.542c5.947,5.312,6.467,14.437,1.156,20.385c-5.31,5.947-14.437,6.468-20.383,1.156
		c3.463,7.183,0.448,15.812-6.732,19.274c-7.18,3.466-15.811,0.451-19.273-6.729c0.451,7.961-5.635,14.779-13.596,15.231
		c-7.96,0.451-14.779-5.635-15.231-13.596c-1.7,4.869-5.869,8.461-10.937,9.424s-10.263-0.852-13.63-4.76
		c-3.366-3.908-4.394-9.313-2.692-14.184c-3.435,3.848-8.661,5.572-13.711,4.521c-5.05-1.052-9.155-4.716-10.771-9.613
		c-1.616-4.898-0.494-10.287,2.94-14.135c-4.646,2.241-10.134,1.834-14.397-1.068c-4.264-2.904-6.654-7.861-6.271-13.004
		c0.382-5.146,3.479-9.693,8.125-11.935c-7.961,0.453-14.78-5.635-15.232-13.594c-0.452-7.961,5.635-14.781,13.595-15.232
		c-4.869-1.701-8.461-5.869-9.423-10.938c-0.963-5.066,0.852-10.262,4.759-13.629c3.907-3.367,9.314-4.393,14.184-2.693
		c-3.848-3.434-5.571-8.66-4.521-13.711c1.05-5.049,4.715-9.154,9.612-10.77c4.898-1.615,10.286-0.494,14.135,2.939
		c-2.241-4.645-1.833-10.133,1.069-14.396c2.903-4.264,7.86-6.654,13.004-6.271c5.144,0.381,9.692,3.479,11.933,8.125
		c-0.452-7.961,5.635-14.781,13.595-15.232c7.961-0.453,14.78,5.635,15.231,13.594c2.629-7.527,10.86-11.498,18.389-8.869
		s11.5,10.861,8.871,18.389c3.435-3.848,8.66-5.57,13.711-4.52c5.05,1.049,9.154,4.715,10.771,9.611
		c1.615,4.898,0.494,10.287-2.939,14.135c7.182-3.463,15.811-0.449,19.275,6.732c3.463,7.18,0.449,15.811-6.732,19.273
		c7.961-0.451,14.781,5.635,15.232,13.596c0.453,7.961-5.635,14.779-13.596,15.232c4.87,1.698,8.463,5.868,9.424,10.936
		c0.963,5.068-0.853,10.265-4.76,13.632C237.602,110.216,232.195,111.243,227.326,109.542L227.326,109.542z"/>
	<path fill="#8758A4" d="M221.008,104.484c5.389,4.642,5.992,12.771,1.35,18.158c-4.641,5.39-12.771,5.992-18.157,1.351
		c2.069,4.106,1.791,9.008-0.729,12.854c-2.521,3.848-6.906,6.057-11.498,5.795c-4.595-0.26-8.697-2.951-10.769-7.059
		c0.526,7.092-4.795,13.268-11.888,13.795c-7.09,0.525-13.268-4.795-13.793-11.887c-1.441,4.369-5.103,7.637-9.606,8.574
		c-4.504,0.936-9.165-0.603-12.229-4.033c-3.064-3.432-4.062-8.236-2.622-12.605c-4.642,5.387-12.772,5.99-18.159,1.35
		c-5.388-4.643-5.991-12.772-1.35-18.159c-6.351,3.2-14.093,0.647-17.293-5.703c-3.201-6.351-0.648-14.092,5.702-17.293
		c-7.092,0.526-13.268-4.795-13.795-11.888c-0.527-7.089,4.795-13.268,11.887-13.792c-4.369-1.441-7.638-5.104-8.574-9.607
		s0.601-9.164,4.032-12.229c3.433-3.062,8.237-4.062,12.606-2.621c-5.388-4.643-5.991-12.773-1.35-18.16
		c4.641-5.387,12.772-5.99,18.159-1.35c-3.2-6.35-0.647-14.092,5.702-17.293c6.351-3.201,14.093-0.648,17.294,5.703
		C145.4,1.293,150.722-4.883,157.814-5.41c7.09-0.527,13.268,4.795,13.793,11.887c2.229-6.754,9.508-10.424,16.262-8.197
		c6.754,2.227,10.422,9.508,8.195,16.262c3.004-3.486,7.637-5.104,12.156-4.246c4.52,0.859,8.237,4.062,9.754,8.406
		c1.518,4.342,0.602,9.164-2.4,12.648c6.35-3.199,14.092-0.646,17.293,5.703c3.201,6.349,0.648,14.092-5.703,17.293
		c4.588-0.34,9.01,1.791,11.598,5.594c2.59,3.803,2.953,8.697,0.955,12.842c-2,4.143-6.057,6.903-10.645,7.245
		c4.369,1.441,7.639,5.103,8.574,9.605c0.938,4.504-0.601,9.166-4.031,12.229C230.182,104.927,225.377,105.925,221.008,104.484
		L221.008,104.484z"/>
	<path fill="#9977B5" d="M214.537,99.659c4.805,3.995,5.459,11.131,1.463,15.937c-3.996,4.805-11.129,5.461-15.934,1.465
		c1.881,3.578,1.713,7.887-0.445,11.307c-2.156,3.418-5.975,5.428-10.014,5.268c-4.039-0.158-7.688-2.459-9.57-6.037
		c0.572,6.223-4.008,11.73-10.232,12.303c-6.222,0.572-11.729-4.01-12.302-10.231c-1.854,5.97-8.193,9.306-14.162,7.451
		c-5.968-1.854-9.304-8.193-7.45-14.162c-3.996,4.806-11.131,5.461-15.936,1.465c-4.805-3.996-5.46-11.131-1.464-15.937
		c-3.578,1.884-7.888,1.714-11.307-0.442c-3.419-2.158-5.428-5.976-5.269-10.015c0.158-4.041,2.46-7.688,6.038-9.569
		c-6.224,0.572-11.731-4.01-12.304-10.231c-0.571-6.224,4.01-11.732,10.232-12.304c-5.968-1.854-9.304-8.193-7.45-14.162
		c1.853-5.969,8.193-9.305,14.161-7.451c-4.805-3.996-5.46-11.131-1.464-15.936s11.13-5.459,15.935-1.463
		c-1.882-3.578-1.713-7.889,0.444-11.307c2.157-3.42,5.975-5.428,10.014-5.27c4.04,0.158,7.688,2.461,9.57,6.039
		C146.519,10.15,151.1,4.643,157.323,4.07c6.222-0.57,11.731,4.01,12.302,10.232c1.199-3.859,4.367-6.787,8.311-7.68
		c3.941-0.893,8.062,0.387,10.806,3.355c2.743,2.968,3.696,7.176,2.497,11.035c3.996-4.805,11.132-5.459,15.937-1.463
		c4.806,3.996,5.459,11.129,1.464,15.934c5.53-2.908,12.373-0.785,15.282,4.746c2.91,5.531,0.785,12.373-4.746,15.283
		c6.226-0.572,11.732,4.008,12.306,10.232c0.569,6.223-4.01,11.73-10.232,12.303c5.967,1.854,9.303,8.193,7.449,14.162
		C226.846,98.177,220.504,101.514,214.537,99.659L214.537,99.659z"/>
	<path fill="#8758A4" d="M207.916,95.073c4.201,3.37,4.873,9.51,1.502,13.713c-3.373,4.2-9.512,4.873-13.713,1.502
		c1.676,3.055,1.594,6.771-0.213,9.752c-1.809,2.979-5.068,4.769-8.553,4.69c-3.485-0.076-6.662-2.006-8.34-5.061
		c0.381,3.465-1.117,6.867-3.929,8.928c-2.812,2.062-6.508,2.467-9.696,1.062s-5.389-4.402-5.768-7.867
		c-1.508,5.172-6.923,8.143-12.095,6.637c-5.172-1.508-8.143-6.924-6.635-12.096c-3.372,4.201-9.512,4.875-13.714,1.502
		c-4.201-3.371-4.873-9.512-1.501-13.713c-3.056,1.676-6.773,1.596-9.753-0.213c-2.979-1.807-4.768-5.068-4.691-8.551
		c0.076-3.484,2.005-6.664,5.061-8.34c-5.355,0.586-10.172-3.279-10.759-8.636s3.279-10.172,8.635-10.758
		c-5.172-1.508-8.143-6.924-6.636-12.096c1.508-5.172,6.923-8.143,12.095-6.635c-4.201-3.371-4.874-9.512-1.502-13.713
		c3.372-4.201,9.512-4.873,13.713-1.502c-1.676-3.055-1.595-6.773,0.213-9.752c1.808-2.979,5.068-4.768,8.553-4.691
		c3.483,0.076,6.662,2.004,8.339,5.061c-0.587-5.355,3.279-10.172,8.635-10.76c5.355-0.586,10.171,3.279,10.757,8.635
		c0.977-3.346,3.662-5.916,7.047-6.744c3.385-0.83,6.955,0.211,9.365,2.729c2.41,2.518,3.293,6.129,2.318,9.475
		c2.182-2.717,5.646-4.064,9.092-3.535c3.443,0.531,6.344,2.857,7.607,6.105c1.262,3.248,0.696,6.924-1.484,9.641
		c4.723-2.59,10.652-0.861,13.244,3.861c2.592,4.722,0.863,10.652-3.861,13.244c5.355-0.588,10.172,3.279,10.76,8.635
		c0.586,5.354-3.279,10.172-8.635,10.758c3.346,0.975,5.916,3.66,6.744,7.047c0.83,3.385-0.211,6.955-2.729,9.363
		c-2.519,2.41-6.129,3.295-9.476,2.318L207.916,95.073L207.916,95.073z"/>
	<path fill="#9977B5" d="M201.152,90.727c2.313,1.791,3.498,4.684,3.102,7.584c-0.395,2.899-2.307,5.369-5.016,6.479
		c-2.709,1.107-5.805,0.688-8.119-1.105c1.453,2.541,1.439,5.664-0.035,8.193s-4.188,4.078-7.113,4.066
		c-2.928-0.014-5.627-1.586-7.078-4.127c0.57,4.488-2.604,8.59-7.096,9.162c-4.488,0.569-8.59-2.605-9.161-7.097
		c-1.19,4.367-5.694,6.941-10.061,5.75c-4.366-1.188-6.94-5.692-5.75-10.062c-1.792,2.316-4.683,3.498-7.584,3.104
		c-2.9-0.396-5.37-2.307-6.479-5.016c-1.108-2.711-0.688-5.806,1.105-8.119c-2.542,1.451-5.665,1.438-8.194-0.037
		c-2.528-1.476-4.078-4.187-4.065-7.112c0.013-2.928,1.586-5.625,4.128-7.078c-4.489,0.569-8.592-2.605-9.163-7.095
		c-0.57-4.489,2.605-8.592,7.095-9.162c-4.366-1.191-6.94-5.695-5.75-10.061c1.19-4.367,5.694-6.941,10.061-5.75
		c-2.314-1.793-3.498-4.684-3.103-7.584c0.395-2.9,2.307-5.371,5.016-6.479c2.71-1.109,5.805-0.688,8.119,1.104
		c-2.245-3.928-0.881-8.934,3.048-11.18c3.93-2.244,8.935-0.881,11.18,3.049c-0.57-4.488,2.605-8.592,7.095-9.162
		c4.49-0.57,8.591,2.605,9.161,7.094c0.771-2.824,2.987-5.023,5.819-5.768c2.83-0.746,5.845,0.076,7.904,2.154
		c2.061,2.08,2.857,5.1,2.086,7.924c2.771-3.578,7.918-4.232,11.496-1.463c3.578,2.771,4.232,7.918,1.463,11.496
		c3.928-2.246,8.935-0.881,11.18,3.047c2.244,3.93,0.882,8.936-3.049,11.18c4.488-0.57,8.592,2.605,9.162,7.096
		c0.572,4.488-2.604,8.59-7.094,9.162c2.824,0.771,5.023,2.987,5.768,5.817c0.746,2.832-0.076,5.845-2.153,7.906
		C206.996,90.7,203.977,91.495,201.152,90.727L201.152,90.727z"/>
	<path fill="#8758A4" d="M194.252,86.622c2.936,2.19,3.539,6.349,1.348,9.282c-2.192,2.937-6.35,3.539-9.285,1.347
		c1.873,3.147,0.84,7.222-2.309,9.095c-3.148,1.872-7.219,0.838-9.092-2.312c0.525,3.625-1.986,6.989-5.613,7.518
		c-3.625,0.525-6.989-1.987-7.515-5.612c-0.902,3.551-4.512,5.696-8.062,4.797c-3.551-0.902-5.698-4.512-4.797-8.062
		c-2.191,2.936-6.348,3.537-9.283,1.346c-2.935-2.19-3.538-6.348-1.346-9.283c-2.037,1.212-4.565,1.244-6.633,0.087
		c-2.067-1.156-3.36-3.33-3.392-5.699c-0.032-2.369,1.205-4.576,3.241-5.787c-3.625,0.524-6.99-1.987-7.517-5.612
		c-0.525-3.625,1.987-6.991,5.613-7.517c-3.551-0.902-5.698-4.512-4.797-8.062c0.902-3.551,4.512-5.697,8.062-4.797
		c-2.936-2.191-3.538-6.348-1.347-9.283c2.192-2.936,6.349-3.537,9.284-1.346c-1.212-2.037-1.245-4.564-0.087-6.633
		c1.157-2.066,3.331-3.359,5.7-3.391c2.369-0.032,4.575,1.205,5.787,3.24c-0.525-3.625,1.987-6.99,5.613-7.516
		c3.625-0.525,6.989,1.986,7.515,5.613c0.902-3.551,4.512-5.699,8.062-4.797c3.55,0.902,5.697,4.512,4.797,8.062
		c2.191-2.936,6.348-3.539,9.283-1.348c2.936,2.193,3.537,6.35,1.346,9.285c3.148-1.873,7.219-0.84,9.092,2.309
		s0.84,7.219-2.309,9.092c3.625-0.525,6.99,1.986,7.516,5.613c0.525,3.625-1.986,6.99-5.613,7.517
		c3.551,0.901,5.699,4.512,4.797,8.061C201.412,85.376,197.803,87.523,194.252,86.622z"/>
	<path fill="#9977B5" d="M187.225,82.768c2.273,1.637,2.789,4.807,1.152,7.08c-1.637,2.272-4.807,2.791-7.08,1.153
		c1.475,2.381,0.738,5.508-1.645,6.981c-2.381,1.474-5.508,0.736-6.982-1.645c0.291,1.789-0.393,3.596-1.797,4.742
		c-1.402,1.146-3.312,1.457-5.006,0.816c-1.695-0.644-2.918-2.142-3.209-3.929c-0.643,2.728-3.373,4.416-6.101,3.773
		c-2.727-0.642-4.416-3.373-3.774-6.101c-1.637,2.273-4.807,2.791-7.08,1.154s-2.79-4.807-1.153-7.08
		c-1.541,0.953-3.474,1.012-5.069,0.154c-1.597-0.857-2.614-2.502-2.669-4.314c-0.056-1.811,0.859-3.514,2.4-4.467
		c-2.765,0.449-5.371-1.426-5.821-4.191c-0.45-2.765,1.426-5.371,4.19-5.821c-2.727-0.643-4.417-3.373-3.774-6.1
		c0.642-2.727,3.373-4.416,6.1-3.775c-2.273-1.637-2.79-4.807-1.153-7.08c1.637-2.273,4.807-2.789,7.08-1.152
		c-0.953-1.541-1.012-3.475-0.154-5.07c0.858-1.595,2.502-2.613,4.313-2.668c1.812-0.057,3.515,0.859,4.468,2.4
		c-0.45-2.766,1.426-5.371,4.191-5.822c2.765-0.449,5.372,1.426,5.823,4.191c0.642-2.727,3.373-4.418,6.099-3.775
		s4.415,3.373,3.774,6.1c1.637-2.273,4.807-2.789,7.08-1.152c2.273,1.637,2.789,4.807,1.152,7.08
		c2.383-1.475,5.508-0.738,6.982,1.645c1.475,2.381,0.737,5.508-1.646,6.982c1.789-0.291,3.599,0.393,4.744,1.797
		c1.146,1.402,1.457,3.312,0.813,5.006c-0.641,1.695-2.139,2.917-3.928,3.208c2.727,0.644,4.418,3.373,3.775,6.103
		C192.682,81.721,189.951,83.409,187.225,82.768L187.225,82.768z"/>
</g>
<path opacity="0.2" fill="#8758A4" enable-background="new    " d="M180.072,79.163c1.594,1.104,1.988,3.293,0.883,4.887
	c-1.105,1.595-3.293,1.988-4.887,0.884c0.68,1.055,0.744,2.393,0.168,3.508c-0.574,1.115-1.699,1.84-2.953,1.899
	c-1.252,0.062-2.443-0.553-3.121-1.608c0.223,1.235-0.229,2.496-1.188,3.307c-0.957,0.811-2.273,1.049-3.455,0.625
	c-1.18-0.424-2.044-1.447-2.27-2.682c-0.265,1.227-1.166,2.217-2.36,2.6c-1.195,0.383-2.503,0.1-3.432-0.744
	s-1.337-2.119-1.071-3.346c-0.715,1.031-1.926,1.604-3.176,1.498c-1.25-0.104-2.351-0.867-2.886-2
	c-0.535-1.135-0.424-2.469,0.291-3.5c-1.055,0.678-2.392,0.742-3.508,0.168c-1.115-0.574-1.839-1.701-1.899-2.953
	c-0.061-1.254,0.553-2.443,1.608-3.123c-1.235,0.225-2.495-0.229-3.306-1.186c-0.811-0.957-1.049-2.275-0.625-3.455
	c0.424-1.183,1.446-2.047,2.681-2.271c-1.227-0.266-2.217-1.166-2.6-2.361c-0.383-1.195-0.099-2.502,0.745-3.432
	c0.844-0.928,2.118-1.336,3.345-1.07c-1.031-0.715-1.603-1.926-1.498-3.176c0.104-1.25,0.867-2.352,2.002-2.887
	c1.134-0.535,2.469-0.424,3.499,0.291c-0.679-1.055-0.743-2.391-0.168-3.508c0.574-1.115,1.7-1.838,2.953-1.898
	c1.253-0.06,2.443,0.553,3.122,1.607c-0.224-1.234,0.229-2.494,1.187-3.305c0.957-0.811,2.274-1.049,3.455-0.625
	c1.181,0.424,2.045,1.445,2.269,2.68c0.267-1.227,1.166-2.217,2.36-2.6c1.195-0.383,2.503-0.098,3.433,0.746
	c0.929,0.844,1.336,2.117,1.07,3.344c0.715-1.031,1.926-1.602,3.176-1.498s2.353,0.867,2.888,2.002
	c0.534,1.135,0.424,2.469-0.291,3.5c1.055-0.68,2.391-0.744,3.508-0.168c1.114,0.574,1.838,1.699,1.897,2.953
	c0.062,1.252-0.553,2.443-1.606,3.121c1.908-0.346,3.733,0.922,4.08,2.83c0.346,1.91-0.922,3.736-2.83,4.082
	c1.895,0.41,3.098,2.281,2.686,4.176C183.838,78.37,181.967,79.573,180.072,79.163L180.072,79.163z"/>
<g enable-background="new    ">
	<path fill="#262262" d="M24.072,58.584v27.141h-4.096V58.584H24.072z"/>
	<path fill="#262262" d="M30.594,85.725V58.584h5.695c2.73,0,4.887,0.27,6.469,0.809c1.699,0.527,3.24,1.424,4.623,2.689
		c2.801,2.555,4.201,5.912,4.201,10.072c0,4.172-1.459,7.547-4.377,10.125c-1.465,1.289-3,2.186-4.605,2.689
		c-1.5,0.504-3.627,0.756-6.381,0.756H30.594z M34.689,81.875h1.846c1.84,0,3.369-0.193,4.588-0.58
		c1.219-0.41,2.32-1.061,3.305-1.951c2.016-1.84,3.023-4.236,3.023-7.189c0-2.977-0.996-5.391-2.988-7.242
		c-1.793-1.652-4.436-2.479-7.928-2.479h-1.846V81.875z"/>
	<path fill="#262262" d="M71.709,62.434H60.828v6.521h10.564v3.85H60.828v9.07h10.881v3.85H56.732V58.584h14.977V62.434z"/>
	<path fill="#262262" d="M93.031,79.133H81.412l-3.023,6.592h-4.412l13.43-28.846l12.955,28.846h-4.482L93.031,79.133z
		 M91.361,75.283l-4.025-9.229l-4.219,9.229H91.361z"/>
	<path fill="#262262" d="M128.416,62.434h-9.457v6.521h9.123v3.85h-9.123v12.92h-4.096V58.584h13.553V62.434z"/>
	<path fill="#262262" d="M137.258,58.584v23.291h7.98v3.85h-12.076V58.584H137.258z"/>
	<path fill="#262262" d="M146.662,72.031c0-3.82,1.4-7.102,4.201-9.844c2.789-2.742,6.141-4.113,10.055-4.113
		c3.867,0,7.184,1.383,9.949,4.148c2.777,2.766,4.166,6.088,4.166,9.967c0,3.902-1.395,7.213-4.184,9.932
		c-2.801,2.73-6.182,4.096-10.143,4.096c-3.504,0-6.65-1.213-9.439-3.639C148.197,79.895,146.662,76.379,146.662,72.031z
		 M150.793,72.075c0,2.998,1.008,5.462,3.023,7.395c2.004,1.932,4.318,2.897,6.943,2.897c2.848,0,5.25-0.983,7.207-2.95
		c1.957-1.99,2.936-4.414,2.936-7.271c0-2.892-0.967-5.315-2.9-7.271c-1.922-1.967-4.301-2.95-7.137-2.95
		c-2.824,0-5.209,0.983-7.154,2.95C151.766,66.818,150.793,69.219,150.793,72.075z"/>
	<path fill="#262262" d="M180.359,58.584l7.066,18.141l7.383-19.459l7.066,19.459l7.506-18.141h4.447l-12.129,28.863l-6.979-19.23
		l-7.277,19.248l-11.531-28.881H180.359z"/>
</g>
</svg>
