<svg id="Layer_1" data-name="Layer 1" xmlns="http://www.w3.org/2000/svg" xmlns:xlink="http://www.w3.org/1999/xlink" viewBox="0 0 49.85 104.3"><defs><style>.cls-1{fill:url(#linear-gradient);}.cls-2{fill:#999;}.cls-3{fill:url(#radial-gradient);}.cls-4{fill:url(#linear-gradient-2);}.cls-5{fill:url(#linear-gradient-3);}.cls-6{fill:url(#linear-gradient-4);}</style><linearGradient id="linear-gradient" x1="67.44" y1="1013.28" x2="79.99" y2="1013.28" gradientTransform="translate(-34.42 -917.3)" gradientUnits="userSpaceOnUse"><stop offset="0" stop-color="#ccc"/><stop offset="1" stop-color="#999"/></linearGradient><radialGradient id="radial-gradient" cx="-288.48" cy="888.51" r="31.16" gradientTransform="translate(328.73 -819.15)" gradientUnits="userSpaceOnUse"><stop offset="0" stop-color="#fff"/><stop offset="1" stop-color="#d4a7ff"/></radialGradient><linearGradient id="linear-gradient-2" x1="80.42" y1="943.51" x2="68.5" y2="987.96" gradientTransform="translate(-34.42 -917.3)" gradientUnits="userSpaceOnUse"><stop offset="0.38" stop-color="#a9a7ff"/><stop offset="1" stop-color="#d6a6ff"/></linearGradient><linearGradient id="linear-gradient-3" x1="65.35" y1="940.18" x2="79.18" y2="982.03" gradientTransform="translate(-34.42 -917.3)" gradientUnits="userSpaceOnUse"><stop offset="0" stop-color="#8100ff"/><stop offset="1" stop-color="#a9a7ff"/></linearGradient><linearGradient id="linear-gradient-4" x1="66.93" y1="945.42" x2="77.53" y2="984.92" gradientTransform="translate(-34.42 -917.3)" gradientUnits="userSpaceOnUse"><stop offset="0" stop-color="#3e0083"/><stop offset="1" stop-color="#8100ff"/></linearGradient></defs><title>om_fire</title><g id="Layer0_0_MEMBER_2_FILL" data-name="Layer0 0 MEMBER 2 FILL"><path class="cls-1" d="M33.1,77.15l7.55,37.7,5-37.75Q37.65,79.66,33.1,77.15Z" transform="translate(-14.15 -10.56)"/><path class="cls-2" d="M58.8,69.4H18.9v7.75H33.1q4.6,2.5,12.55,0h13.2Z" transform="translate(-14.15 -10.56)"/></g><g id="Layer0_0_MEMBER_2_MEMBER_0_FILL" data-name="Layer0 0 MEMBER 2 MEMBER 0 FILL"><path class="cls-3" d="M34.1,49.76A20,20,0,0,0,36.45,61q-.15.55-1.5,0a10.55,10.55,0,0,1-2.85-4.85q-3.85,4.7-2,9.65A10.66,10.66,0,0,0,33,70.36a4.41,4.41,0,0,0,2.6,1.55,32.23,32.23,0,0,0,9.6-.5,11.19,11.19,0,0,0,3.15-5.1,16.89,16.89,0,0,0,.55-2.7,10.29,10.29,0,0,0-1.9-7,45.51,45.51,0,0,1-7-9.3,13.46,13.46,0,0,1-1.65-9A19.8,19.8,0,0,0,34.1,49.76Z" transform="translate(-14.15 -10.56)"/><path class="cls-4" d="M39.65,24.51q-9.75,7-7.7,16a30.86,30.86,0,0,1,.85,8.95q-2.75.85-3.3-7a30.8,30.8,0,0,0-4,13.65q-.45,7.7,7.4,14.25a10.66,10.66,0,0,1-2.85-4.6q-1.8-5,2-9.65A10.55,10.55,0,0,0,34.95,61q1.35.55,1.5,0a20,20,0,0,1-2.35-11.2,19.8,19.8,0,0,1,4.1-11.45,13.46,13.46,0,0,0,1.65,9,45.51,45.51,0,0,0,7,9.3,10.29,10.29,0,0,1,1.9,7q2.55-4.8.85-11.75a38.68,38.68,0,0,0-7.15-14.1Q37.15,30.61,39.65,24.51Z" transform="translate(-14.15 -10.56)"/><path class="cls-5" d="M27.35,45q-3.25-1.85-4-6.75-6.3,11.3,0,25.05a18.18,18.18,0,0,0,8.3,8,23.91,23.91,0,0,0,4,.6A4.41,4.41,0,0,1,33,70.31q-7.9-6.5-7.45-14.2a30.8,30.8,0,0,1,4-13.65q.55,7.85,3.3,7A30.86,30.86,0,0,0,32,40.51q-2-9,7.7-16-2.5,6.1,2.9,13.25a38.68,38.68,0,0,1,7.15,14.1q1.7,6.95-.85,11.75a16.89,16.89,0,0,1-.55,2.7,11.19,11.19,0,0,1-3.15,5.1,41.81,41.81,0,0,0,5.35-1.85q8.8-11.1,7.55-18.6a28,28,0,0,1,.45-8.9q-4.6,3.75-5.15,8.65a14.8,14.8,0,0,0-1.1-6.25A52.94,52.94,0,0,0,45,29.71q-3.8-6.65-2.25-11.5Q26.8,24,27.35,45Z" transform="translate(-14.15 -10.56)"/><path class="cls-6" d="M23.3,38.21q.8,4.9,4,6.75-.55-21,15.4-26.75Q41.15,23.06,45,29.71A52.94,52.94,0,0,1,52.2,44.46a14.8,14.8,0,0,1,1.1,6.25q.55-4.9,5.15-8.65A28,28,0,0,0,58,51q1.25,7.5-7.55,18.6Q60.3,65.3,64,56.46q-7.9,6.3-7,3.8,4.6-3.65,5.35-6.15,2.15-7.5-1.7-12a8.55,8.55,0,0,1-2.25-6.75q-4.15,1.35-4,7.55a54.32,54.32,0,0,0-5.2-16.35q-3.65-7.5,0-16a35,35,0,0,0-13,6.1q-10.85,8.75-9.6,20.5A6.66,6.66,0,0,1,24.25,31a40.83,40.83,0,0,0-6.5,11.15q-2.5,7.6,0,13.85-.7,1.1-3.6-1.7,3.15,13.6,17.45,17a18.18,18.18,0,0,1-8.3-8Q17,49.51,23.3,38.21Z" transform="translate(-14.15 -10.56)"/></g></svg>