<svg id="Layer_1" data-name="Layer 1" xmlns="http://www.w3.org/2000/svg" xmlns:xlink="http://www.w3.org/1999/xlink" viewBox="0 0 475.18 125.41"><defs><style>.cls-1{fill:none;}.cls-2{clip-path:url(#clip-path);}.cls-3,.cls-4,.cls-7{isolation:isolate;}.cls-4,.cls-7{font-size:63.27px;font-family:ArialMT, Arial;}.cls-5{letter-spacing:-0.02em;}.cls-6{clip-path:url(#clip-path-2);}.cls-7{fill:#9073f9;}.cls-8{fill:url(#linear-gradient);}.cls-9{fill:#999;}.cls-10{fill:url(#radial-gradient);}.cls-11{fill:url(#linear-gradient-2);}.cls-12{fill:url(#linear-gradient-3);}.cls-13{fill:url(#linear-gradient-4);}</style><clipPath id="clip-path" transform="translate(-34.42 -39.3)"><rect class="cls-1" x="189.14" y="91.44" width="331.12" height="67.49"/></clipPath><clipPath id="clip-path-2" transform="translate(-34.42 -39.3)"><rect class="cls-1" x="8.64" y="91.44" width="221.43" height="67.49"/></clipPath><linearGradient id="linear-gradient" x1="355.92" y1="77.23" x2="368.47" y2="77.23" gradientTransform="matrix(1, 0, 0, -1, 0, 202)" gradientUnits="userSpaceOnUse"><stop offset="0" stop-color="#ccc"/><stop offset="1" stop-color="#999"/></linearGradient><radialGradient id="radial-gradient" cx="0" cy="202" r="31.16" gradientTransform="matrix(1, 0, 0, -1, 363.15, 300.15)" gradientUnits="userSpaceOnUse"><stop offset="0" stop-color="#fff"/><stop offset="1" stop-color="#d4a7ff"/></radialGradient><linearGradient id="linear-gradient-2" x1="368.93" y1="146.99" x2="357.01" y2="102.54" gradientTransform="matrix(1, 0, 0, -1, 0, 202)" gradientUnits="userSpaceOnUse"><stop offset="0.38" stop-color="#a9a7ff"/><stop offset="1" stop-color="#d6a6ff"/></linearGradient><linearGradient id="linear-gradient-3" x1="353.83" y1="150.32" x2="367.66" y2="108.47" gradientTransform="matrix(1, 0, 0, -1, 0, 202)" gradientUnits="userSpaceOnUse"><stop offset="0" stop-color="#8100ff"/><stop offset="1" stop-color="#a9a7ff"/></linearGradient><linearGradient id="linear-gradient-4" x1="355.47" y1="145.1" x2="366.07" y2="105.6" gradientTransform="matrix(1, 0, 0, -1, 0, 202)" gradientUnits="userSpaceOnUse"><stop offset="0" stop-color="#3e0083"/><stop offset="1" stop-color="#8100ff"/></linearGradient></defs><title>om_vector_logo</title><g class="cls-2"><g class="cls-3"><text class="cls-4" transform="translate(156.94 104.87)"><tspan xml:space="preserve"> MAS  E</tspan><tspan class="cls-5" x="232.04" y="0">RY</tspan></text></g></g><g class="cls-6"><g class="cls-3"><text class="cls-7" transform="translate(0 104.87)">OPEN</text></g></g><g id="Layer0_0_MEMBER_2_FILL" data-name="Layer0 0 MEMBER 2 FILL"><path class="cls-8" d="M356,105.95l7.55,37.7,5-37.75Q360.55,108.45,356,105.95Z" transform="translate(-34.42 -39.3)"/><path class="cls-9" d="M381.7,98.2H341.8v7.75H356q4.6,2.5,12.55,0h13.2Z" transform="translate(-34.42 -39.3)"/></g><g id="Layer0_0_MEMBER_2_MEMBER_0_FILL" data-name="Layer0 0 MEMBER 2 MEMBER 0 FILL"><path class="cls-10" d="M357,78.55a20,20,0,0,0,2.35,11.2q-.15.55-1.5,0A10.55,10.55,0,0,1,355,84.9q-3.85,4.7-2,9.65a10.66,10.66,0,0,0,2.85,4.6,4.41,4.41,0,0,0,2.6,1.55,32.23,32.23,0,0,0,9.6-.5,11.19,11.19,0,0,0,3.15-5.1,16.89,16.89,0,0,0,.55-2.7,10.29,10.29,0,0,0-1.9-7,45.51,45.51,0,0,1-7.05-9.3,13.46,13.46,0,0,1-1.65-9A19.8,19.8,0,0,0,357,78.55Z" transform="translate(-34.42 -39.3)"/><path class="cls-11" d="M362.55,53.3q-9.75,7-7.7,16a30.86,30.86,0,0,1,.85,8.95q-2.75.85-3.3-7a30.8,30.8,0,0,0-3.95,13.65q-.45,7.7,7.4,14.25a10.66,10.66,0,0,1-2.85-4.6q-1.8-5,2-9.65a10.55,10.55,0,0,0,2.85,4.85q1.35.55,1.5,0A20,20,0,0,1,357,78.55a19.8,19.8,0,0,1,4.1-11.45,13.46,13.46,0,0,0,1.65,9,45.51,45.51,0,0,0,7.05,9.3,10.29,10.29,0,0,1,1.9,7q2.55-4.8.85-11.75a38.68,38.68,0,0,0-7.15-14.1Q360.05,59.4,362.55,53.3Z" transform="translate(-34.42 -39.3)"/><path class="cls-12" d="M350.25,73.75Q347,71.9,346.2,67q-6.3,11.3,0,25.05a18.18,18.18,0,0,0,8.3,8,23.91,23.91,0,0,0,4,.6,4.41,4.41,0,0,1-2.6-1.55Q348,92.6,348.45,84.9a30.8,30.8,0,0,1,3.95-13.65q.55,7.85,3.3,7a30.86,30.86,0,0,0-.85-8.95q-2.05-9.05,7.7-16-2.5,6.1,2.9,13.25a38.68,38.68,0,0,1,7.15,14.1q1.7,6.95-.85,11.75a16.89,16.89,0,0,1-.55,2.7,11.19,11.19,0,0,1-3.15,5.1,41.81,41.81,0,0,0,5.35-1.85q8.8-11.1,7.55-18.6a28,28,0,0,1,.45-8.9q-4.6,3.75-5.15,8.65a14.8,14.8,0,0,0-1.1-6.25A52.94,52.94,0,0,0,367.9,58.5q-3.8-6.65-2.25-11.5Q349.7,52.75,350.25,73.75Z" transform="translate(-34.42 -39.3)"/><path class="cls-13" d="M346.2,67q.8,4.9,4,6.75-.55-21,15.4-26.75-1.55,4.85,2.25,11.5a52.94,52.94,0,0,1,7.25,14.75,14.8,14.8,0,0,1,1.1,6.25q.55-4.9,5.15-8.65a28,28,0,0,0-.45,8.9q1.25,7.5-7.55,18.6,9.85-4.25,13.55-13.1-7.9,6.3-7,3.8,4.6-3.65,5.35-6.15,2.15-7.5-1.7-12a8.55,8.55,0,0,1-2.25-6.75q-4.15,1.35-4,7.55a54.32,54.32,0,0,0-5.2-16.35q-3.65-7.5,0-16a35,35,0,0,0-13,6.1q-10.85,8.75-9.6,20.5a6.66,6.66,0,0,1-2.35-6.15,40.83,40.83,0,0,0-6.5,11.15q-2.5,7.6,0,13.85-.7,1.1-3.6-1.7,3.15,13.6,17.45,17a18.18,18.18,0,0,1-8.3-8Q339.9,78.3,346.2,67Z" transform="translate(-34.42 -39.3)"/></g></svg>